<svg width="100" height="33" viewBox="0 0 100 33" fill="none" xmlns="http://www.w3.org/2000/svg">
<g clip-path="url(#clip0_383_723)">
<path d="M90.622 28.1943H89.0981C86.7026 28.1943 84.7607 30.1219 84.7607 32.4998H89.0981C93.571 32.4998 97.3101 29.3903 98.2475 25.231C96.2409 27.0693 93.5615 28.1943 90.622 28.1943Z" fill="#161717"/>
<path d="M59.668 8.07287C58.8484 7.8406 57.9837 7.71436 57.089 7.71436C51.9096 7.71436 47.7109 11.8822 47.7109 17.0234V25.9834C50.3006 25.9834 52.4 23.8995 52.4 21.3289V17.0234C52.4 14.26 54.4993 12.0198 57.089 12.0198C58.042 12.0198 58.928 12.324 59.668 12.8451V8.07287Z" fill="#161717"/>
<path d="M25.2169 17.0236V5.15454C25.2169 2.58392 23.1175 0.5 20.5278 0.5V17.0236C20.5278 22.1649 24.7265 26.3327 29.9059 26.3327C30.0194 26.3327 30.1317 26.3282 30.2442 26.3242C27.2161 24.3201 25.2169 20.8995 25.2169 17.0236Z" fill="#161717"/>
<path d="M45.8353 17.0234C45.8353 16.2203 45.7328 15.4409 45.5402 14.6975C44.4995 10.6817 40.8275 7.71436 36.4572 7.71436C31.2778 7.71436 27.0791 11.8822 27.0791 17.0234C27.0791 22.1647 31.2778 26.3325 36.4572 26.3325C38.6422 26.3325 40.651 25.5887 42.2453 24.345C43.1052 25.3538 44.3892 25.995 45.8247 25.995V17.4376C45.8308 17.3002 45.8353 17.1623 45.8353 17.0234ZM36.4572 22.0271C33.8675 22.0271 31.7681 19.7869 31.7681 17.0235C31.7681 14.26 33.8675 12.0198 36.4572 12.0198C38.9518 12.0198 40.9906 14.0989 41.137 16.7216V17.3397C41.1188 17.6508 41.074 17.9541 41.005 18.2473C40.4933 20.4191 38.6512 22.0271 36.4572 22.0271Z" fill="#161717"/>
<path d="M61.5435 8.06348H66.2325V25.9835C63.6445 25.9835 61.5435 23.8978 61.5435 21.3289V8.06348Z" fill="#161717"/>
<path d="M66.2325 6.20191H61.5435C61.5435 3.63127 63.6428 1.54736 66.2325 1.54736V6.20191Z" fill="#FFD200"/>
<path d="M74.6728 12.7183V8.06372H79.3618C79.3618 10.6326 77.2607 12.7183 74.6728 12.7183Z" fill="#161717"/>
<path d="M95.3108 8.06348V17.0235C95.3108 19.7869 93.2114 22.0271 90.6217 22.0271C88.032 22.0271 85.9327 19.7869 85.9327 17.0235V8.06348H81.2437V17.0235C81.2437 22.1647 85.4424 26.3326 90.6217 26.3326C95.8011 26.3326 99.9998 22.1647 99.9998 17.0235V12.718C99.9998 10.1474 97.9005 8.06348 95.3108 8.06348Z" fill="#161717"/>
<path d="M80.1558 21.1367C79.3981 21.6977 78.4786 22.0274 77.4865 22.0274C74.8968 22.0274 72.7974 19.7872 72.7974 17.0237V6.20191C72.7974 3.63127 70.6981 1.54736 68.1084 1.54736V17.0237C68.1084 22.165 72.3071 26.3328 77.4865 26.3328C79.3654 26.3328 81.1137 25.7822 82.5808 24.8378C81.5425 23.7851 80.7119 22.5299 80.1558 21.1367Z" fill="#161717"/>
<path d="M13.6843 19.0016C12.9657 20.7808 11.309 22.0271 9.37808 22.0271C6.78839 22.0271 4.68904 19.7869 4.68904 17.0234C4.68904 14.26 6.78839 12.0198 9.37808 12.0198C11.3091 12.0198 12.9662 13.266 13.6848 15.0453H18.5426C18.5173 14.9286 18.4908 14.8124 18.461 14.6975C17.4204 10.6817 13.7484 7.71436 9.37808 7.71436C4.19871 7.71434 0 11.8822 0 17.0234C0 22.1647 4.19871 26.3325 9.37808 26.3325C13.8732 26.3325 17.627 23.1921 18.5409 19.0016L13.6843 19.0016Z" fill="#161717"/>
</g>
<defs>
<clipPath id="clip0_383_723">
<rect width="100" height="32" fill="white" transform="translate(0 0.5)"/>
</clipPath>
</defs>
</svg>
