<svg id="Layer_1" data-name="Layer 1" xmlns="http://www.w3.org/2000/svg" viewBox="0 0 349.27 101.53"><title>Reversed</title><path d="M201.34,32.13h7.95V49.86H230V32.13h7.94V73.65H230V56.8H209.29V73.65h-7.95Z" style="fill:#fff"></path><path d="M260.31,42l8.07-.06,8.3,24.15,8.13-24.15h7.77l-12.1,31.74h-8Z" style="fill:#fff"></path><path d="M320.55,46q3.82,4.34,3.83,12.16,0,1.55-.06,2.31H300.88A8.86,8.86,0,0,0,310,67.72a12.14,12.14,0,0,0,4.66-.92,11.38,11.38,0,0,0,3.89-2.64l4.15,4.33a15.9,15.9,0,0,1-5.79,4A19.4,19.4,0,0,1,309.31,74a17.59,17.59,0,0,1-8.57-2A14.07,14.07,0,0,1,295,66.27a17.14,17.14,0,0,1-2-8.4A17.07,17.07,0,0,1,295,49.45a14.55,14.55,0,0,1,5.73-5.73,16.94,16.94,0,0,1,8.36-2Q316.72,41.68,320.55,46Zm-3.23,9.31A7.7,7.7,0,0,0,315,49.74a8.12,8.12,0,0,0-5.81-2.07,8.23,8.23,0,0,0-5.67,2,9,9,0,0,0-2.81,5.61Z" style="fill:#fff"></path><path d="M57.81,42.77a20.45,20.45,0,0,0-7.67-7.47,21.25,21.25,0,0,0-10.61-2.73H23.19V73.66H39.47a21.43,21.43,0,0,0,10.64-2.74,20.43,20.43,0,0,0,7.7-7.46,20.38,20.38,0,0,0,0-20.69Zm-2.2,19.45a18.63,18.63,0,0,1-16.08,9H25.66V35H39.47a18.69,18.69,0,0,1,16.14,9,17.91,17.91,0,0,1,0,18.22Z" style="fill:#fff"></path><path d="M74,30a4.58,4.58,0,0,1,1.23,3.29A4.53,4.53,0,0,1,74,36.51a4.41,4.41,0,0,1-6.23,0,4.49,4.49,0,0,1-1.24-3.24A4.55,4.55,0,0,1,67.77,30,4.41,4.41,0,0,1,74,30Z" style="fill:#fff"></path><rect x="69.67" y="43.03" width="2.41" height="30.62" style="fill:#fff"></rect><path d="M107.54,43v7.88a13,13,0,0,0-4.94-5.82A13.81,13.81,0,0,0,95,43a14,14,0,0,0-7.26,1.91,13.51,13.51,0,0,0-5,5.26,16.63,16.63,0,0,0,0,15.17,13.17,13.17,0,0,0,5,5.23A14.26,14.26,0,0,0,95,72.42a13.9,13.9,0,0,0,7.64-2.09,12.54,12.54,0,0,0,4.88-5.79v5.82a12.26,12.26,0,0,1-3.41,9.09A12.38,12.38,0,0,1,95,82.83a14.9,14.9,0,0,1-5.91-1.15A18.7,18.7,0,0,1,84,78.3l-1.29,1.82a20.44,20.44,0,0,0,5.79,3.73,16.82,16.82,0,0,0,6.61,1.27,16.19,16.19,0,0,0,7.82-1.82,12.71,12.71,0,0,0,5.17-5.18,16.16,16.16,0,0,0,1.82-7.82V43ZM106,64.22a11.61,11.61,0,0,1-4.38,4.47,13,13,0,0,1-12.55,0,11.46,11.46,0,0,1-4.32-4.47,13.3,13.3,0,0,1-1.55-6.44,13.44,13.44,0,0,1,1.55-6.46,11.35,11.35,0,0,1,4.35-4.5,13,13,0,0,1,12.52,0,11.56,11.56,0,0,1,4.38,4.5,13.13,13.13,0,0,1,1.59,6.46A13,13,0,0,1,106,64.22Z" style="fill:#fff"></path><path d="M125.94,30a4.58,4.58,0,0,1,1.23,3.29,4.53,4.53,0,0,1-1.23,3.24,4.41,4.41,0,0,1-6.23,0,4.49,4.49,0,0,1-1.24-3.24A4.55,4.55,0,0,1,119.71,30a4.41,4.41,0,0,1,6.23,0Z" style="fill:#fff"></path><rect x="121.61" y="43.03" width="2.41" height="30.62" style="fill:#fff"></rect><path d="M150.39,71.54a11.6,11.6,0,0,1-6.52,2.17,6.18,6.18,0,0,1-5.06-2.14c-1.18-1.43-1.76-3.56-1.76-6.38V45.91h-4.47V43.79h4.47V36.21h2.35v7.58h10.4v2.12H139.4v19c0,4.27,1.58,6.4,4.76,6.4a9.27,9.27,0,0,0,5.29-1.76Z" style="fill:#fff"></path><path d="M179.84,53.32a10.16,10.16,0,0,0-3-7.59Q174,43,168.61,43a16.28,16.28,0,0,0-6.05,1.09,26.44,26.44,0,0,0-5.76,3.26L158,49.2a24.09,24.09,0,0,1,5.06-3,13.54,13.54,0,0,1,5.23-1c3,0,5.29.72,6.82,2.17a8.24,8.24,0,0,1,2.35,6.11v3H166.55c-3.52,0-6.31.74-8.34,2.21a7,7,0,0,0-3.06,6,8.61,8.61,0,0,0,1.26,4.62,8.79,8.79,0,0,0,3.56,3.2,11.48,11.48,0,0,0,5.29,1.17,16.7,16.7,0,0,0,7.2-1.49,11.66,11.66,0,0,0,5-4.62l.06,6.06H180Zm-2.35,10.34a10.85,10.85,0,0,1-4.41,5.88,13.7,13.7,0,0,1-7.47,1.94,8.78,8.78,0,0,1-5.9-1.88,6.18,6.18,0,0,1-2.21-4.94,5,5,0,0,1,2.38-4.47,13,13,0,0,1,6.91-1.52h10.7Z" style="fill:#fff"></path><rect x="191.47" y="30.04" width="2.47" height="43.61" style="fill:#fff"></rect><path d="M333.18,67a4.58,4.58,0,0,1,1.23,3.29,4.51,4.51,0,0,1-1.23,3.24,4.41,4.41,0,0,1-6.23,0,4.51,4.51,0,0,1-1.23-3.24A4.58,4.58,0,0,1,327,67a4.41,4.41,0,0,1,6.23,0Z" style="fill:#fff"></path><path d="M247.88,41.91h7.71V73.65h-7.71Z" style="fill:#fff"></path><path d="M254.88,29.57a4.65,4.65,0,0,1,1.25,3.33,4.55,4.55,0,0,1-1.25,3.26,4.45,4.45,0,0,1-6.29,0,4.54,4.54,0,0,1-1.24-3.26,4.64,4.64,0,0,1,1.24-3.33,4.45,4.45,0,0,1,6.29,0Z" style="fill:#fff"></path></svg>