<svg xmlns="http://www.w3.org/2000/svg" width="180" height="54" viewBox="0 0 180 54" fill="none"><g clip-path="url(#clip0_4230_4)"><path d="M18.364 19.522L2.90714 28.771C0.126888 30.4346 -0.825697 34.1192 0.779484 37.0007L8.57064 50.9867C10.1758 53.8682 13.7309 54.8555 16.5112 53.1919L31.968 43.9429C34.7483 42.2793 35.7009 38.5947 34.0957 35.7132L26.3045 21.7272C24.6993 18.8457 21.1442 17.8584 18.364 19.522Z" fill="#DBDBDB"></path><path d="M18.364 0.808466L2.90714 10.0574C0.126888 11.7211 -0.825697 15.4056 0.779484 18.2871L8.57064 32.2732C10.1758 35.1547 13.7309 36.1419 16.5112 34.4783L31.968 25.2294C34.7483 23.5657 35.7009 19.8812 34.0957 16.9997L26.3045 3.0136C24.6993 0.132108 21.1442 -0.855165 18.364 0.808466Z" fill="white"></path><path d="M47.0864 28.8759C47.0864 22.0144 51.8309 18.5851 56.281 18.5851C59.702 18.5851 61.9088 20.5294 62.3855 21.6337H62.4949V19.5732C62.4949 19.239 62.7557 18.9658 63.0809 18.9658H66.8384C67.1609 18.9658 67.4245 19.2361 67.4245 19.5732V38.1816C67.4245 38.5158 67.1637 38.789 66.8384 38.789H63.0809C62.7585 38.789 62.4949 38.5187 62.4949 38.1816V36.1211H62.3855C61.906 37.2254 59.6992 39.1697 56.281 39.1697C51.8309 39.1697 47.0864 35.7375 47.0864 28.8789V28.8759ZM57.2737 34.5953C60.0329 34.5953 62.6071 32.6133 62.6071 28.8759C62.6071 25.1386 60.0329 23.1595 57.2737 23.1595C54.5145 23.1595 51.9403 25.1793 51.9403 28.8759C51.9403 32.5726 54.5145 34.5953 57.2737 34.5953Z" fill="white"></path><path d="M70.6042 33.4532L73.4868 32.6424C73.7701 32.561 74.0673 32.715 74.1794 32.9969C74.6309 34.1158 75.5366 35.1272 77.1714 35.1272C78.422 35.1272 79.6362 34.4791 79.6362 33.0696C79.6362 32.1164 79.0473 31.4305 77.5387 30.858L75.1861 29.9425C72.0231 28.7597 70.6996 26.6643 70.6996 24.2638C70.6996 20.7183 73.7168 18.5851 77.32 18.5851C80.5391 18.5851 82.959 20.3346 83.7834 23.0345C83.8844 23.3658 83.6965 23.7175 83.3684 23.8046L80.5784 24.5486C80.3008 24.6242 80.0176 24.476 79.897 24.2057C79.3502 22.9822 78.4613 22.5869 77.5415 22.5869C76.2545 22.5869 75.4833 23.3484 75.4833 24.3016C75.4833 25.1415 75.9628 25.8651 77.4686 26.397L79.6026 27.2369C81.9552 28.1145 84.5293 29.5618 84.5293 33.0696C84.5293 37.0336 81.257 39.1697 77.2471 39.1697C73.6663 39.1697 70.9744 37.4667 70.192 34.1943C70.1135 33.8717 70.2958 33.5433 70.607 33.4561L70.6042 33.4532Z" fill="white"></path><path d="M86.7502 33.4532L89.6328 32.6424C89.916 32.561 90.2133 32.715 90.3254 32.9969C90.7769 34.1158 91.6826 35.1272 93.3174 35.1272C94.568 35.1272 95.7822 34.4791 95.7822 33.0696C95.7822 32.1164 95.1933 31.4305 93.6847 30.858L91.3321 29.9425C88.1691 28.7597 86.8456 26.6643 86.8456 24.2638C86.8456 20.7183 89.8628 18.5851 93.466 18.5851C96.6851 18.5851 99.105 20.3346 99.9294 23.0345C100.03 23.3658 99.8425 23.7175 99.5144 23.8046L96.7244 24.5486C96.4468 24.6242 96.1636 24.476 96.043 24.2057C95.4962 22.9822 94.6073 22.5869 93.6875 22.5869C92.4005 22.5869 91.6293 23.3484 91.6293 24.3016C91.6293 25.1415 92.1088 25.8651 93.6146 26.397L95.7485 27.2369C98.1012 28.1145 100.675 29.5618 100.675 33.0696C100.675 37.0336 97.403 39.1697 93.3931 39.1697C89.8123 39.1697 87.1204 37.4667 86.338 34.1943C86.2595 33.8717 86.4418 33.5433 86.753 33.4561L86.7502 33.4532Z" fill="white"></path><path d="M104.051 11.7236H107.809C108.131 11.7236 108.395 11.9939 108.395 12.331V15.615C108.395 15.9492 108.134 16.2224 107.809 16.2224H104.051C103.729 16.2224 103.465 15.9521 103.465 15.615V12.331C103.465 11.9968 103.726 11.7236 104.051 11.7236ZM104.051 18.9658H107.809C108.131 18.9658 108.395 19.2361 108.395 19.5732V38.1816C108.395 38.5158 108.134 38.789 107.809 38.789H104.051C103.729 38.789 103.465 38.5187 103.465 38.1816V19.5732C103.465 19.239 103.726 18.9658 104.051 18.9658Z" fill="white"></path><path d="M124.319 27.5042C124.319 24.6852 122.887 23.1594 120.789 23.1594C118.692 23.1594 117.074 24.6852 117.074 27.5042V38.1787C117.074 38.5129 116.813 38.7861 116.488 38.7861H112.73C112.408 38.7861 112.144 38.5158 112.144 38.1787V19.5703C112.144 19.2361 112.405 18.9629 112.73 18.9629H116.488C116.81 18.9629 117.074 19.2332 117.074 19.5703V19.8377C117.074 20.3695 117.685 20.6427 118.058 20.2794C119.109 19.2564 120.584 18.5793 122.553 18.5793C124.639 18.5793 126.493 19.3872 127.707 21.1629C127.928 21.4884 128.388 21.4942 128.632 21.189C129.818 19.6982 131.756 18.5793 134.467 18.5793C138.514 18.5793 141.455 21.2094 141.455 27.2717V38.1758C141.455 38.51 141.194 38.7831 140.869 38.7831H137.075C136.753 38.7831 136.489 38.5129 136.489 38.1758V27.5013C136.489 24.6823 135.093 23.1565 132.959 23.1565C130.825 23.1565 129.243 24.6823 129.243 27.5013V38.1758C129.243 38.51 128.983 38.7831 128.657 38.7831H124.9C124.577 38.7831 124.314 38.5129 124.314 38.1758V27.5013L124.319 27.5042Z" fill="white"></path><path d="M145.756 11.7236H149.514C149.836 11.7236 150.1 11.9939 150.1 12.331V15.615C150.1 15.9492 149.839 16.2224 149.514 16.2224H145.756C145.434 16.2224 145.17 15.9521 145.17 15.615V12.331C145.17 11.9968 145.431 11.7236 145.756 11.7236ZM145.756 18.9658H149.514C149.836 18.9658 150.1 19.2361 150.1 19.5732V38.1816C150.1 38.5158 149.839 38.789 149.514 38.789H145.756C145.434 38.789 145.17 38.5187 145.17 38.1816V19.5732C145.17 19.239 145.431 18.9658 145.756 18.9658Z" fill="white"></path><path d="M154.435 11.7236H158.193C158.515 11.7236 158.779 11.9939 158.779 12.331V38.1816C158.779 38.5158 158.518 38.789 158.193 38.789H154.435C154.113 38.789 153.849 38.5187 153.849 38.1816V12.331C153.849 11.9968 154.11 11.7236 154.435 11.7236Z" fill="white"></path><path d="M161.978 30.7069C161.978 27.5798 163.442 25.2403 165.348 23.9877C165.671 23.7756 165.71 23.3106 165.435 23.0374C164.359 21.9621 163.52 20.3463 163.52 18.3207C163.52 14.6618 166.352 11.3458 170.985 11.3458C175.617 11.3458 178.413 14.6618 178.413 18.3207C178.413 20.3463 177.574 21.965 176.52 23.0403C176.251 23.3135 176.293 23.7756 176.61 23.9848C178.5 25.2374 179.994 27.5769 179.994 30.7098C179.994 36.0455 175.617 39.1726 170.985 39.1726C166.352 39.1726 161.975 36.0455 161.975 30.7098L161.978 30.7069ZM170.987 34.5198C173.194 34.5198 175.034 32.8051 175.034 30.4017C175.034 27.9983 173.121 26.2836 170.987 26.2836C168.854 26.2836 166.941 27.8849 166.941 30.4017C166.941 32.9185 168.744 34.5198 170.987 34.5198ZM170.987 21.75C172.79 21.75 173.929 20.3405 173.929 18.7014C173.929 16.9489 172.605 15.7283 170.987 15.7283C169.369 15.7283 168.046 16.9489 168.046 18.7014C168.046 20.3405 169.187 21.75 170.987 21.75Z" fill="white"></path></g><defs><clipPath id="clip0_4230_4"><rect width="180" height="54" fill="white"></rect></clipPath></defs></svg>