<svg xmlns="http://www.w3.org/2000/svg" width="57" height="58" viewBox="0 0 57 58" fill="none"><rect x="0.650146" y="0.879883" width="56.21" height="56.21" rx="12" fill="#575B64"></rect><path d="M29.7243 24.0796L19.4095 30.1462C17.5541 31.2375 16.9184 33.6543 17.9896 35.5443L23.1889 44.7181C24.2601 46.6082 26.6325 47.2558 28.4879 46.1645L38.8028 40.0979C40.6581 39.0067 41.2938 36.5899 40.2226 34.6998L35.0233 25.526C33.9521 23.636 31.5797 22.9884 29.7243 24.0796Z" fill="#DBDBDB"></path><path d="M29.7243 11.8062L19.4095 17.8728C17.5541 18.964 16.9184 21.3808 17.9896 23.2709L23.1889 32.4447C24.2601 34.3347 26.6325 34.9823 28.4879 33.8911L38.8028 27.8245C40.6581 26.7332 41.2938 24.3164 40.2226 22.4264L35.0233 13.2526C33.9521 11.3625 31.5797 10.715 29.7243 11.8062Z" fill="white"></path></svg>