<svg xmlns="http://www.w3.org/2000/svg" width="344" height="100" viewBox="0 0 344 100" fill="none"><g clip-path="url(#clip0_14021_70)"><path d="M35.0962 36.1543L5.55664 53.2819C0.243055 56.3628 -1.57751 63.1863 1.49029 68.5226L16.3786 94.4202C19.4464 99.7565 26.2409 101.585 31.5544 98.504L61.094 81.3764C66.4076 78.2955 68.2281 71.472 65.1603 66.1357L50.272 40.2381C47.2042 34.9018 40.4098 33.0734 35.0962 36.1543Z" fill="#A50A24"></path><path d="M35.0962 1.49681L5.55664 18.6244C0.243055 21.7053 -1.57751 28.5288 1.49029 33.8651L16.3786 59.7627C19.4464 65.099 26.2409 66.9274 31.5544 63.8464L61.094 46.7189C66.4076 43.6379 68.2281 36.8144 65.1603 31.4781L50.272 5.58055C47.2042 0.244247 40.4098 -1.58411 35.0962 1.49681Z" fill="#E5233F"></path><path d="M89.9863 53.4754C89.9863 40.769 99.0524 34.4175 107.56 34.4175C114.097 34.4175 118.313 38.0173 119.228 40.0643H119.438V36.2468C119.438 35.625 119.938 35.1223 120.558 35.1223H127.739C128.358 35.1223 128.858 35.625 128.858 36.2468V70.7041C128.858 71.3259 128.358 71.8286 127.739 71.8286H120.558C119.938 71.8286 119.438 71.3259 119.438 70.7041V66.8866H119.228C118.315 68.9335 114.097 72.5333 107.56 72.5333C99.0542 72.5333 89.9863 66.1801 89.9863 53.4737V53.4754ZM109.457 64.0641C114.729 64.0641 119.648 60.3935 119.648 53.4754C119.648 46.5574 114.729 42.8885 109.457 42.8885C104.185 42.8885 99.2657 46.6299 99.2657 53.4754C99.2657 60.3209 104.187 64.0641 109.457 64.0641Z" fill="#01050C"></path><path d="M134.932 61.9516L140.438 60.4522C140.981 60.3037 141.545 60.587 141.762 61.1086C142.622 63.178 144.358 65.0522 147.481 65.0522C149.87 65.0522 152.19 63.8517 152.19 61.2416C152.19 59.478 151.066 58.2067 148.183 57.1478L143.683 55.4533C137.637 53.2647 135.107 49.3816 135.107 44.9354C135.107 38.3697 140.871 34.4175 147.76 34.4175C153.909 34.4175 158.535 37.6581 160.111 42.6588C160.304 43.2737 159.942 43.9249 159.32 44.0855L153.988 45.4622C153.456 45.6004 152.916 45.3258 152.684 44.8249C151.64 42.5586 149.939 41.8262 148.179 41.8262C145.718 41.8262 144.244 43.2374 144.244 45.0028C144.244 46.5557 145.157 47.8961 148.038 48.8859L152.115 50.4388C156.614 52.0625 161.533 54.7433 161.533 61.2382C161.533 68.5794 155.278 72.5316 147.617 72.5316C140.776 72.5316 135.63 69.3792 134.136 63.3162C133.988 62.7185 134.335 62.1105 134.928 61.9498H134.932V61.9516Z" fill="#01050C"></path><path d="M165.787 61.9516L171.293 60.4522C171.837 60.3037 172.401 60.587 172.618 61.1086C173.478 63.178 175.213 65.0522 178.337 65.0522C180.726 65.0522 183.046 63.8517 183.046 61.2416C183.046 59.478 181.921 58.2067 179.038 57.1478L174.539 55.4533C168.493 53.2647 165.963 49.3816 165.963 44.9354C165.963 38.3697 171.727 34.4175 178.615 34.4175C184.764 34.4175 189.391 37.6581 190.966 42.6588C191.159 43.2737 190.798 43.9249 190.175 44.0855L184.843 45.4622C184.312 45.6004 183.772 45.3258 183.54 44.8249C182.495 42.5586 180.794 41.8262 179.035 41.8262C176.574 41.8262 175.099 43.2374 175.099 45.0028C175.099 46.5557 176.013 47.8961 178.894 48.8859L182.97 50.4388C187.47 52.0625 192.389 54.7433 192.389 61.2382C192.389 68.5794 186.133 72.5316 178.472 72.5316C171.632 72.5316 166.486 69.3792 164.991 63.3162C164.843 62.7185 165.191 62.1105 165.784 61.9498H165.787V61.9516Z" fill="#01050C"></path><path d="M198.854 21.7111H206.035C206.654 21.7111 207.155 22.2138 207.155 22.8356V28.9176C207.155 29.5395 206.654 30.0422 206.035 30.0422H198.854C198.235 30.0422 197.734 29.5395 197.734 28.9176V22.8356C197.734 22.2138 198.235 21.7111 198.854 21.7111ZM198.854 35.1223H206.035C206.654 35.1223 207.155 35.625 207.155 36.2468V70.7041C207.155 71.3259 206.654 71.8286 206.035 71.8286H198.854C198.235 71.8286 197.734 71.3259 197.734 70.7041V36.2468C197.734 35.625 198.235 35.1223 198.854 35.1223Z" fill="#01050C"></path><path d="M237.589 50.9345C237.589 45.711 234.849 42.8885 230.841 42.8885C226.834 42.8885 223.743 45.7127 223.743 50.9345V70.7041C223.743 71.3259 223.242 71.8286 222.623 71.8286H215.442C214.823 71.8286 214.322 71.3259 214.322 70.7041V36.2468C214.322 35.6249 214.823 35.1223 215.442 35.1223H222.623C223.242 35.1223 223.743 35.6249 223.743 36.2468V36.7443C223.743 37.7271 224.911 38.2367 225.624 37.5648C227.637 35.6716 230.452 34.4193 234.216 34.4193C238.201 34.4193 241.746 35.9169 244.068 39.204C244.491 39.8069 245.372 39.8207 245.838 39.2507C248.103 36.4903 251.806 34.4193 256.989 34.4193C264.72 34.4193 270.343 39.2904 270.343 50.513V70.7075C270.343 71.3294 269.842 71.832 269.223 71.832H261.971C261.352 71.832 260.852 71.3294 260.852 70.7075V50.9379C260.852 45.7144 258.181 42.8919 254.104 42.8919C250.028 42.8919 247.006 45.7162 247.006 50.9379V70.7075C247.006 71.3294 246.505 71.832 245.886 71.832H238.705C238.086 71.832 237.585 71.3294 237.585 70.7075V50.9379L237.589 50.9345Z" fill="#01050C"></path><path d="M278.557 21.7111H285.738C286.357 21.7111 286.858 22.2138 286.858 22.8356V28.9176C286.858 29.5395 286.357 30.0422 285.738 30.0422H278.557C277.938 30.0422 277.438 29.5395 277.438 28.9176V22.8356C277.438 22.2138 277.938 21.7111 278.557 21.7111ZM278.557 35.1223H285.738C286.357 35.1223 286.858 35.625 286.858 36.2468V70.7041C286.858 71.3259 286.357 71.8286 285.738 71.8286H278.557C277.938 71.8286 277.438 71.3259 277.438 70.7041V36.2468C277.438 35.625 277.938 35.1223 278.557 35.1223Z" fill="#01050C"></path><path d="M295.145 21.7111H302.326C302.945 21.7111 303.446 22.2138 303.446 22.8356V70.7058C303.446 71.3276 302.945 71.8303 302.326 71.8303H295.145C294.526 71.8303 294.025 71.3276 294.025 70.7058V22.8356C294.025 22.2138 294.526 21.7111 295.145 21.7111Z" fill="#01050C"></path><path d="M309.56 56.8645C309.56 51.0727 312.355 46.7422 316.002 44.4207C316.617 44.0285 316.695 43.1666 316.17 42.6587C314.111 40.6688 312.512 37.6736 312.512 33.9252C312.512 27.1488 317.925 21.0081 326.779 21.0081C335.634 21.0081 340.978 27.1488 340.978 33.9252C340.978 37.6753 339.378 40.674 337.359 42.6622C336.843 43.17 336.922 44.0234 337.531 44.412C341.143 46.7318 344 51.0658 344 56.8628C344 66.745 335.637 72.5333 326.779 72.5333C317.921 72.5333 309.559 66.745 309.559 56.8628L309.56 56.8645ZM326.781 63.9225C330.998 63.9225 334.514 60.7459 334.514 56.2979C334.514 51.85 330.859 48.6734 326.781 48.6734C322.703 48.6734 319.05 51.6375 319.05 56.2979C319.05 60.9583 322.493 63.9225 326.781 63.9225ZM326.781 40.275C330.224 40.275 332.404 37.6632 332.404 34.6283C332.404 31.3808 329.874 29.1232 326.781 29.1232C323.688 29.1232 321.158 31.3808 321.158 34.6283C321.158 37.6632 323.338 40.275 326.781 40.275Z" fill="#01050C"></path></g><defs><clipPath id="clip0_14021_70"><rect width="344" height="100" fill="white"></rect></clipPath></defs></svg>